<svg width="100" height="100" viewBox="0 0 100 100" fill="none" xmlns="http://www.w3.org/2000/svg">
<rect width="100" height="100" rx="50" fill="#FFDDC1"/>
<path d="M50 58C61.0457 58 70 49.0457 70 38C70 26.9543 61.0457 18 50 18C38.9543 18 30 26.9543 30 38C30 49.0457 38.9543 58 50 58Z" fill="#FFA500"/>
<path d="M75 90C75 76.1929 63.8071 65 50 65C36.1929 65 25 76.1929 25 90H75Z" fill="#FFA500"/>
<ellipse cx="42" cy="40" rx="4" ry="6" fill="black"/>
<ellipse cx="58" cy="40" rx="4" ry="6" fill="black"/>
<path d="M45 50C45 47.2386 47.2386 45 50 45C52.7614 45 55 47.2386 55 50" stroke="white" stroke-width="2" stroke-linecap="round"/>
</svg>
